<svg width="650" height="150" viewBox="0 0 650 150" fill="none" xmlns="http://www.w3.org/2000/svg">
<rect width="150" height="150" rx="30" fill="url(#paint0_radial_464_59)"/>
<g clip-path="url(#clip0_464_59)">
<path d="M102.992 16.4062H46.9847C42.018 16.4062 37.9668 20.4575 37.9668 25.4242V92.807C37.9668 94.0201 38.951 95.0043 40.1641 95.0043C41.3771 95.0043 42.3613 94.0201 42.3613 92.807V38.0814H84.4069C85.62 38.0814 86.6042 37.0972 86.6042 35.8841C86.6042 34.671 85.62 33.6868 84.4069 33.6868H42.3842V25.4242C42.3842 22.8836 44.4442 20.8237 46.9847 20.8237H102.992C105.533 20.8237 107.616 22.8836 107.616 25.4242V33.6868H98.1169C96.9039 33.6868 95.9197 34.671 95.9197 35.8841C95.9197 37.0972 96.9039 38.0814 98.1169 38.0814H107.616V110.5H65.0664C63.8533 110.5 62.8691 111.484 62.8691 112.697C62.8691 113.91 63.8533 114.894 65.0664 114.894H107.616V124.553C107.616 127.094 105.556 129.176 102.992 129.176H46.9847C44.4442 129.176 42.3842 127.116 42.3842 124.553V114.894H51.8599C53.073 114.894 54.0572 113.91 54.0572 112.697C54.0572 111.484 53.073 110.5 51.8599 110.5H42.3842V102.969C42.3842 101.756 41.4 100.772 40.187 100.772C38.9739 100.772 37.9897 101.756 37.9897 102.969V124.576C37.9897 129.543 42.0409 133.594 47.0076 133.594H103.015C107.982 133.594 112.033 129.543 112.033 124.576V25.4242C112.033 20.4575 107.982 16.4062 102.992 16.4062Z" fill="white"/>
<path d="M80.2642 124.004C81.4772 124.004 82.4614 123.019 82.4614 121.806C82.4614 120.593 81.4772 119.609 80.2642 119.609H69.7356C68.5225 119.609 67.5383 120.593 67.5383 121.806C67.5383 123.019 68.5225 124.004 69.7356 124.004H80.2642Z" fill="white"/>
<path d="M71.7041 25.8362C70.491 25.8362 69.5068 26.8204 69.5068 28.0334C69.5068 29.2465 70.491 30.2307 71.7041 30.2307H78.3188C79.5319 30.2307 80.5161 29.2465 80.5161 28.0334C80.5161 26.8204 79.5319 25.8362 78.3188 25.8362H71.7041Z" fill="white"/>
<g clip-path="url(#clip1_464_59)">
<path d="M82.7063 96.1624C82.7063 95.5346 82.1933 95.0222 81.5661 95.0222H68.4329C67.8062 95.0222 67.2932 95.5346 67.2932 96.1624C67.2932 96.7888 67.8059 97.3027 68.4329 97.3027H81.5661C82.1933 97.3027 82.7063 96.7888 82.7063 96.1624Z" fill="white"/>
<path d="M75.0001 55.5558C75.6273 55.5558 76.1403 55.0434 76.1403 54.4155V47.0752C76.1403 46.4477 75.6273 45.9341 75.0001 45.9341C74.3729 45.9341 73.8599 46.4474 73.8599 47.0752V54.4158C73.8599 55.0434 74.3729 55.5558 75.0001 55.5558Z" fill="white"/>
<path d="M84.8378 58.1919C85.3813 58.5048 86.0812 58.3179 86.3952 57.7744L90.0659 51.4173C90.3793 50.8738 90.1912 50.1733 89.6481 49.8601C89.1055 49.5467 88.4044 49.7342 88.091 50.2776L84.4206 56.6342C84.1072 57.1779 84.2949 57.879 84.8378 58.1919Z" fill="white"/>
<path d="M92.0396 65.3949C92.3525 65.9369 93.0541 66.1255 93.597 65.8124L99.9547 62.1403C100.498 61.8274 100.686 61.1269 100.372 60.584C100.059 60.0406 99.3576 59.8525 98.8148 60.1666L92.4576 63.8372C91.9136 64.15 91.7261 64.8508 92.0396 65.3949Z" fill="white"/>
<path d="M94.6758 75.2322C94.6758 75.86 95.1896 76.3733 95.8157 76.3724H103.157C103.784 76.3724 104.297 75.86 104.297 75.2322C104.297 74.6061 103.784 74.0925 103.157 74.0925H95.8157C95.1876 74.0925 94.6758 74.6061 94.6758 75.2322Z" fill="white"/>
<path d="M65.1616 58.1919C65.7051 57.879 65.8929 57.178 65.5797 56.6342L61.9088 50.2762C61.5947 49.7342 60.8948 49.5467 60.3511 49.8602C59.8082 50.1734 59.621 50.8739 59.9345 51.4173L63.6051 57.7745C63.9185 58.3179 64.6193 58.5048 65.1616 58.1919Z" fill="white"/>
<path d="M57.9597 65.3947C58.2743 64.8507 58.0862 64.1499 57.5431 63.837L51.1851 60.1655C50.6425 59.8526 49.9414 60.0407 49.6271 60.583C49.3142 61.1265 49.5028 61.8261 50.0451 62.1401L56.4031 65.8107C56.9466 66.1239 57.6462 65.9364 57.9597 65.3947Z" fill="white"/>
<path d="M55.3242 75.2322C55.3242 74.6043 54.8112 74.0925 54.1852 74.0911H46.8434C46.2161 74.0925 45.7031 74.6043 45.7031 75.2322C45.7031 75.8588 46.2161 76.3724 46.8434 76.3724H54.1854C54.8112 76.3724 55.3242 75.8588 55.3242 75.2322Z" fill="white"/>
<path d="M82.7063 99.293C82.7063 98.6655 82.1933 98.1531 81.5661 98.1531H68.4329C67.8062 98.1531 67.2932 98.6655 67.2932 99.293C67.2932 99.9203 67.8059 100.433 68.4329 100.433H81.5661C82.1933 100.433 82.7063 99.9203 82.7063 99.293Z" fill="white"/>
<path d="M71.1494 101.284C71.6847 102.9 73.2052 104.066 74.9999 104.066C76.7946 104.066 78.3145 102.9 78.8495 101.284H71.1494V101.284Z" fill="white"/>
<path d="M74.9999 59.1804C66.1353 59.1804 58.9487 66.3675 58.9487 75.2322C58.9487 79.9437 60.9805 84.1844 64.2166 87.1206C64.2233 87.1244 64.6994 87.5252 64.9309 87.7261C66.4522 89.0474 67.2945 91.0859 67.2945 93.26H82.7038C82.7038 91.0859 83.547 89.0474 85.0675 87.7261C85.2992 87.5249 85.7756 87.1241 85.7826 87.1206C89.0182 84.1844 91.0499 79.9437 91.0499 75.2322C91.0505 66.3675 83.8646 59.1804 74.9999 59.1804ZM76.1155 82.818V84.2527C76.1155 84.5325 76.0086 84.812 75.7953 85.0267C75.5814 85.2403 75.3011 85.3469 75.0213 85.3469H74.7796C74.4998 85.3469 74.2197 85.2406 74.0067 85.0267C73.7932 84.8123 73.6854 84.5325 73.6854 84.2527V82.9926C72.0248 82.9182 70.4132 82.4723 69.4719 81.9259L70.2148 79.025C71.2566 79.5959 72.7189 80.1166 74.3311 80.1166C75.7432 80.1166 76.7105 79.5713 76.7105 78.5785C76.7105 77.6366 75.9178 77.0427 74.082 76.4228C71.4298 75.5301 69.6198 74.2906 69.6198 71.885C69.6198 69.7033 71.1576 67.992 73.8099 67.4717V66.2108C73.8099 65.931 73.9165 65.6503 74.1301 65.4379C74.3442 65.2244 74.6237 65.1177 74.9041 65.1177H75.1452C75.425 65.1177 75.7045 65.2244 75.9192 65.4379C76.1328 65.6506 76.2395 65.931 76.2395 66.2108V67.2989C77.9003 67.3733 79.0165 67.7202 79.8345 68.1171L79.1155 70.9188C78.4713 70.6455 77.3311 70.0756 75.5454 70.0756C73.9332 70.0756 73.4132 70.7703 73.4132 71.464C73.4132 72.282 74.281 72.8029 76.3883 73.5957C79.3388 74.6372 80.5282 76.0003 80.5282 78.2319C80.5282 80.4385 78.9661 82.3232 76.1155 82.818Z" fill="white"/>
</g>
</g>
<path d="M209.547 64.9219V105H194.922V54.2812H208.656L209.547 64.9219ZM207.672 77.8594L203.969 77.9531C203.969 74.3906 204.391 71.125 205.234 68.1562C206.109 65.1562 207.375 62.5469 209.031 60.3281C210.688 58.1094 212.734 56.3906 215.172 55.1719C217.641 53.9531 220.484 53.3438 223.703 53.3438C225.953 53.3438 228 53.6875 229.844 54.375C231.688 55.0312 233.266 56.0781 234.578 57.5156C235.922 58.9219 236.953 60.7656 237.672 63.0469C238.391 65.2969 238.75 68 238.75 71.1562V105H224.125V72.9375C224.125 70.6875 223.844 68.9844 223.281 67.8281C222.75 66.6406 221.969 65.8281 220.938 65.3906C219.906 64.9531 218.672 64.7344 217.234 64.7344C215.672 64.7344 214.281 65.0781 213.062 65.7656C211.875 66.4219 210.875 67.3438 210.062 68.5312C209.25 69.7188 208.641 71.1094 208.234 72.7031C207.859 74.2969 207.672 76.0156 207.672 77.8594ZM237.25 77.1094L232.609 77.4844C232.609 74.0469 233.016 70.8594 233.828 67.9219C234.641 64.9844 235.859 62.4375 237.484 60.2812C239.109 58.0938 241.125 56.3906 243.531 55.1719C245.969 53.9531 248.797 53.3438 252.016 53.3438C254.391 53.3438 256.547 53.6875 258.484 54.375C260.453 55.0625 262.141 56.1719 263.547 57.7031C264.984 59.2344 266.094 61.25 266.875 63.75C267.656 66.2188 268.047 69.25 268.047 72.8438V105H253.328V72.8438C253.328 70.625 253.047 68.9375 252.484 67.7812C251.953 66.625 251.172 65.8281 250.141 65.3906C249.141 64.9531 247.938 64.7344 246.531 64.7344C244.969 64.7344 243.609 65.0625 242.453 65.7188C241.297 66.3438 240.328 67.2188 239.547 68.3438C238.766 69.4375 238.188 70.7344 237.812 72.2344C237.438 73.7344 237.25 75.3594 237.25 77.1094ZM309.503 92.9062V71.1562C309.503 69.625 309.269 68.3125 308.8 67.2188C308.331 66.125 307.597 65.2656 306.597 64.6406C305.597 64.0156 304.3 63.7031 302.706 63.7031C301.363 63.7031 300.191 63.9375 299.191 64.4062C298.222 64.875 297.472 65.5469 296.941 66.4219C296.441 67.2969 296.191 68.375 296.191 69.6562H281.566C281.566 67.375 282.081 65.25 283.113 63.2812C284.144 61.3125 285.613 59.5781 287.519 58.0781C289.456 56.5781 291.769 55.4219 294.456 54.6094C297.144 53.7656 300.159 53.3438 303.503 53.3438C307.472 53.3438 311.003 54.0156 314.097 55.3594C317.222 56.6719 319.691 58.6562 321.503 61.3125C323.316 63.9375 324.222 67.25 324.222 71.25V92.4844C324.222 95.5469 324.394 97.9531 324.738 99.7031C325.113 101.422 325.644 102.922 326.331 104.203V105H311.566C310.878 103.531 310.363 101.719 310.019 99.5625C309.675 97.375 309.503 95.1562 309.503 92.9062ZM311.331 74.0625L311.425 82.125H304.159C302.534 82.125 301.128 82.3281 299.941 82.7344C298.784 83.1406 297.847 83.7031 297.128 84.4219C296.409 85.1094 295.878 85.9219 295.534 86.8594C295.222 87.7656 295.066 88.7656 295.066 89.8594C295.066 90.8906 295.316 91.8281 295.816 92.6719C296.316 93.4844 297.003 94.125 297.878 94.5938C298.753 95.0625 299.769 95.2969 300.925 95.2969C302.831 95.2969 304.456 94.9219 305.8 94.1719C307.175 93.4219 308.238 92.5156 308.988 91.4531C309.738 90.3594 310.113 89.3438 310.113 88.4062L313.628 94.5C313.066 95.75 312.378 97.0469 311.566 98.3906C310.753 99.7031 309.722 100.938 308.472 102.094C307.222 103.219 305.706 104.141 303.925 104.859C302.175 105.578 300.066 105.938 297.597 105.938C294.409 105.938 291.519 105.297 288.925 104.016C286.331 102.703 284.253 100.906 282.691 98.625C281.159 96.3438 280.394 93.7188 280.394 90.75C280.394 88.0938 280.878 85.7344 281.847 83.6719C282.816 81.6094 284.269 79.8594 286.206 78.4219C288.175 76.9844 290.644 75.9062 293.613 75.1875C296.581 74.4375 300.05 74.0625 304.019 74.0625H311.331ZM352.975 65.1094V105H338.303V54.2812H352.084L352.975 65.1094ZM351.053 77.8594L347.397 77.9531C347.397 74.1406 347.866 70.7188 348.803 67.6875C349.741 64.6562 351.069 62.0781 352.788 59.9531C354.538 57.7969 356.616 56.1562 359.022 55.0312C361.459 53.9062 364.147 53.3438 367.084 53.3438C369.459 53.3438 371.631 53.6875 373.6 54.375C375.569 55.0625 377.256 56.1719 378.663 57.7031C380.1 59.2031 381.194 61.2031 381.944 63.7031C382.694 66.1719 383.069 69.2188 383.069 72.8438V105H368.35V72.7969C368.35 70.6719 368.053 69.0312 367.459 67.875C366.866 66.7188 365.991 65.9062 364.834 65.4375C363.709 64.9688 362.334 64.7344 360.709 64.7344C358.991 64.7344 357.522 65.0781 356.303 65.7656C355.084 66.4219 354.084 67.3438 353.303 68.5312C352.522 69.7188 351.944 71.1094 351.569 72.7031C351.225 74.2969 351.053 76.0156 351.053 77.8594ZM424.291 92.9062V71.1562C424.291 69.625 424.056 68.3125 423.587 67.2188C423.119 66.125 422.384 65.2656 421.384 64.6406C420.384 64.0156 419.087 63.7031 417.494 63.7031C416.15 63.7031 414.978 63.9375 413.978 64.4062C413.009 64.875 412.259 65.5469 411.728 66.4219C411.228 67.2969 410.978 68.375 410.978 69.6562H396.353C396.353 67.375 396.869 65.25 397.9 63.2812C398.931 61.3125 400.4 59.5781 402.306 58.0781C404.244 56.5781 406.556 55.4219 409.244 54.6094C411.931 53.7656 414.947 53.3438 418.291 53.3438C422.259 53.3438 425.791 54.0156 428.884 55.3594C432.009 56.6719 434.478 58.6562 436.291 61.3125C438.103 63.9375 439.009 67.25 439.009 71.25V92.4844C439.009 95.5469 439.181 97.9531 439.525 99.7031C439.9 101.422 440.431 102.922 441.119 104.203V105H426.353C425.666 103.531 425.15 101.719 424.806 99.5625C424.462 97.375 424.291 95.1562 424.291 92.9062ZM426.119 74.0625L426.212 82.125H418.947C417.322 82.125 415.916 82.3281 414.728 82.7344C413.572 83.1406 412.634 83.7031 411.916 84.4219C411.197 85.1094 410.666 85.9219 410.322 86.8594C410.009 87.7656 409.853 88.7656 409.853 89.8594C409.853 90.8906 410.103 91.8281 410.603 92.6719C411.103 93.4844 411.791 94.125 412.666 94.5938C413.541 95.0625 414.556 95.2969 415.712 95.2969C417.619 95.2969 419.244 94.9219 420.587 94.1719C421.962 93.4219 423.025 92.5156 423.775 91.4531C424.525 90.3594 424.9 89.3438 424.9 88.4062L428.416 94.5C427.853 95.75 427.166 97.0469 426.353 98.3906C425.541 99.7031 424.509 100.938 423.259 102.094C422.009 103.219 420.494 104.141 418.712 104.859C416.962 105.578 414.853 105.938 412.384 105.938C409.197 105.938 406.306 105.297 403.712 104.016C401.119 102.703 399.041 100.906 397.478 98.625C395.947 96.3438 395.181 93.7188 395.181 90.75C395.181 88.0938 395.666 85.7344 396.634 83.6719C397.603 81.6094 399.056 79.8594 400.994 78.4219C402.962 76.9844 405.431 75.9062 408.4 75.1875C411.369 74.4375 414.837 74.0625 418.806 74.0625H426.119ZM480.419 90.8906C480.419 89.9531 480.122 89.125 479.528 88.4062C478.966 87.6875 477.934 87.0312 476.434 86.4375C474.966 85.8438 472.888 85.25 470.2 84.6562C467.669 84.125 465.309 83.4375 463.122 82.5938C460.934 81.7188 459.028 80.6719 457.403 79.4531C455.778 78.2031 454.513 76.7344 453.606 75.0469C452.7 73.3281 452.247 71.375 452.247 69.1875C452.247 67.0625 452.7 65.0469 453.606 63.1406C454.544 61.2344 455.888 59.5469 457.638 58.0781C459.419 56.6094 461.575 55.4531 464.106 54.6094C466.669 53.7656 469.575 53.3438 472.825 53.3438C477.294 53.3438 481.153 54.0469 484.403 55.4531C487.653 56.8281 490.153 58.7656 491.903 61.2656C493.653 63.7344 494.528 66.5625 494.528 69.75H479.903C479.903 68.4375 479.653 67.2969 479.153 66.3281C478.653 65.3594 477.888 64.6094 476.856 64.0781C475.825 63.5156 474.466 63.2344 472.778 63.2344C471.466 63.2344 470.309 63.4688 469.309 63.9375C468.341 64.375 467.575 64.9844 467.013 65.7656C466.481 66.5469 466.216 67.4531 466.216 68.4844C466.216 69.2031 466.372 69.8594 466.684 70.4531C467.028 71.0156 467.544 71.5469 468.231 72.0469C468.95 72.5156 469.872 72.9375 470.997 73.3125C472.153 73.6875 473.559 74.0469 475.216 74.3906C478.747 75.0469 481.966 75.9688 484.872 77.1562C487.809 78.3438 490.153 79.9844 491.903 82.0781C493.684 84.1719 494.575 86.9375 494.575 90.375C494.575 92.625 494.059 94.6875 493.028 96.5625C492.028 98.4375 490.575 100.078 488.669 101.484C486.763 102.891 484.481 103.984 481.825 104.766C479.169 105.547 476.169 105.938 472.825 105.938C468.044 105.938 463.997 105.078 460.684 103.359C457.372 101.641 454.872 99.4844 453.184 96.8906C451.528 94.2656 450.7 91.5781 450.7 88.8281H464.434C464.497 90.5156 464.919 91.8906 465.7 92.9531C466.513 94.0156 467.559 94.7969 468.841 95.2969C470.122 95.7656 471.559 96 473.153 96C474.747 96 476.075 95.7812 477.138 95.3438C478.2 94.9062 479.013 94.3125 479.575 93.5625C480.138 92.7812 480.419 91.8906 480.419 90.8906ZM537.297 92.7656V54.2812H552.016V105H538.234L537.297 92.7656ZM538.844 82.4062L542.875 82.3125C542.875 85.7188 542.469 88.8594 541.656 91.7344C540.875 94.6094 539.688 97.1094 538.094 99.2344C536.531 101.359 534.578 103.016 532.234 104.203C529.922 105.359 527.219 105.938 524.125 105.938C521.625 105.938 519.328 105.594 517.234 104.906C515.172 104.188 513.391 103.078 511.891 101.578C510.391 100.047 509.234 98.0938 508.422 95.7188C507.609 93.3125 507.203 90.4375 507.203 87.0938V54.2812H521.828V87.1875C521.828 88.5 521.984 89.625 522.297 90.5625C522.641 91.4688 523.094 92.2188 523.656 92.8125C524.25 93.4062 524.969 93.8438 525.812 94.125C526.688 94.4062 527.641 94.5469 528.672 94.5469C531.266 94.5469 533.297 94.0156 534.766 92.9531C536.266 91.8594 537.312 90.4062 537.906 88.5938C538.531 86.75 538.844 84.6875 538.844 82.4062ZM566.378 33H581.003V92.9531L579.503 105H566.378V33ZM612.644 79.0781V80.0625C612.644 83.9062 612.237 87.4062 611.425 90.5625C610.644 93.7188 609.441 96.4531 607.816 98.7656C606.191 101.047 604.144 102.812 601.675 104.062C599.206 105.312 596.3 105.938 592.956 105.938C589.862 105.938 587.206 105.297 584.987 104.016C582.769 102.703 580.909 100.891 579.409 98.5781C577.909 96.2656 576.691 93.5625 575.753 90.4688C574.847 87.375 574.144 84.0469 573.644 80.4844V78.7969C574.144 75.2344 574.847 71.9062 575.753 68.8125C576.691 65.7188 577.909 63.0156 579.409 60.7031C580.909 58.3906 582.753 56.5938 584.941 55.3125C587.159 54 589.8 53.3438 592.862 53.3438C596.237 53.3438 599.159 53.9844 601.628 55.2656C604.128 56.5469 606.191 58.3438 607.816 60.6562C609.441 62.9375 610.644 65.6562 611.425 68.8125C612.237 71.9375 612.644 75.3594 612.644 79.0781ZM598.019 80.0625V79.0781C598.019 77.1406 597.878 75.3125 597.597 73.5938C597.347 71.875 596.894 70.3594 596.237 69.0469C595.612 67.7031 594.722 66.6562 593.566 65.9062C592.441 65.125 590.987 64.7344 589.206 64.7344C587.456 64.7344 585.972 65.0312 584.753 65.625C583.534 66.2188 582.55 67.0625 581.8 68.1562C581.05 69.2188 580.503 70.5156 580.159 72.0469C579.816 73.5781 579.628 75.2812 579.597 77.1562V82.125C579.628 84.625 579.956 86.8125 580.581 88.6875C581.206 90.5625 582.222 92.0156 583.628 93.0469C585.034 94.0469 586.925 94.5469 589.3 94.5469C591.112 94.5469 592.581 94.2031 593.706 93.5156C594.862 92.7969 595.737 91.7969 596.331 90.5156C596.956 89.2344 597.394 87.7031 597.644 85.9219C597.894 84.1406 598.019 82.1875 598.019 80.0625Z" fill="black"/>
<defs>
<radialGradient id="paint0_radial_464_59" cx="0" cy="0" r="1" gradientUnits="userSpaceOnUse" gradientTransform="translate(75 75) rotate(90) scale(75)">
<stop stop-color="#EBFF00"/>
<stop offset="0.963542" stop-color="#38C235"/>
</radialGradient>
<clipPath id="clip0_464_59">
<rect width="117.188" height="117.188" fill="white" transform="translate(16.4062 16.4062)"/>
</clipPath>
<clipPath id="clip1_464_59">
<rect width="58.5938" height="58.5938" fill="white" transform="translate(45.7031 45.7031)"/>
</clipPath>
</defs>
</svg>
