<svg width="744" height="150" viewBox="0 0 744 150" fill="none" xmlns="http://www.w3.org/2000/svg">
<g clip-path="url(#clip0_464_59)">
<rect width="150" height="150" rx="30" fill="url(#paint0_radial_464_59)"/>
<g clip-path="url(#clip1_464_59)">
<path d="M102.992 16.4062H46.9847C42.018 16.4062 37.9668 20.4575 37.9668 25.4242V92.807C37.9668 94.0201 38.951 95.0043 40.1641 95.0043C41.3771 95.0043 42.3613 94.0201 42.3613 92.807V38.0814H84.4069C85.62 38.0814 86.6042 37.0972 86.6042 35.8841C86.6042 34.671 85.62 33.6868 84.4069 33.6868H42.3842V25.4242C42.3842 22.8836 44.4442 20.8237 46.9847 20.8237H102.992C105.533 20.8237 107.616 22.8836 107.616 25.4242V33.6868H98.1169C96.9039 33.6868 95.9197 34.671 95.9197 35.8841C95.9197 37.0972 96.9039 38.0814 98.1169 38.0814H107.616V110.5H65.0664C63.8533 110.5 62.8691 111.484 62.8691 112.697C62.8691 113.91 63.8533 114.894 65.0664 114.894H107.616V124.553C107.616 127.094 105.556 129.176 102.992 129.176H46.9847C44.4442 129.176 42.3842 127.116 42.3842 124.553V114.894H51.8599C53.073 114.894 54.0572 113.91 54.0572 112.697C54.0572 111.484 53.073 110.5 51.8599 110.5H42.3842V102.969C42.3842 101.756 41.4 100.772 40.187 100.772C38.9739 100.772 37.9897 101.756 37.9897 102.969V124.576C37.9897 129.543 42.0409 133.594 47.0076 133.594H103.015C107.982 133.594 112.033 129.543 112.033 124.576V25.4242C112.033 20.4575 107.982 16.4062 102.992 16.4062Z" fill="white"/>
<path d="M80.2642 124.004C81.4772 124.004 82.4614 123.019 82.4614 121.806C82.4614 120.593 81.4772 119.609 80.2642 119.609H69.7356C68.5225 119.609 67.5383 120.593 67.5383 121.806C67.5383 123.019 68.5225 124.004 69.7356 124.004H80.2642Z" fill="white"/>
<path d="M71.7041 25.8362C70.491 25.8362 69.5068 26.8204 69.5068 28.0334C69.5068 29.2465 70.491 30.2307 71.7041 30.2307H78.3188C79.5319 30.2307 80.5161 29.2465 80.5161 28.0334C80.5161 26.8204 79.5319 25.8362 78.3188 25.8362H71.7041Z" fill="white"/>
<g clip-path="url(#clip2_464_59)">
<path d="M82.7063 96.1624C82.7063 95.5346 82.1933 95.0222 81.5661 95.0222H68.4329C67.8062 95.0222 67.2932 95.5346 67.2932 96.1624C67.2932 96.7888 67.8059 97.3027 68.4329 97.3027H81.5661C82.1933 97.3027 82.7063 96.7888 82.7063 96.1624Z" fill="white"/>
<path d="M75.0001 55.5558C75.6273 55.5558 76.1403 55.0434 76.1403 54.4155V47.0752C76.1403 46.4477 75.6273 45.9341 75.0001 45.9341C74.3729 45.9341 73.8599 46.4474 73.8599 47.0752V54.4158C73.8599 55.0434 74.3729 55.5558 75.0001 55.5558Z" fill="white"/>
<path d="M84.8378 58.1919C85.3813 58.5048 86.0812 58.3179 86.3952 57.7744L90.0659 51.4173C90.3793 50.8738 90.1912 50.1733 89.6481 49.8601C89.1055 49.5467 88.4044 49.7342 88.091 50.2776L84.4206 56.6342C84.1072 57.1779 84.2949 57.879 84.8378 58.1919Z" fill="white"/>
<path d="M92.0396 65.3949C92.3525 65.9369 93.0541 66.1255 93.597 65.8124L99.9547 62.1403C100.498 61.8274 100.686 61.1269 100.372 60.584C100.059 60.0406 99.3576 59.8525 98.8148 60.1666L92.4576 63.8372C91.9136 64.15 91.7261 64.8508 92.0396 65.3949Z" fill="white"/>
<path d="M94.6758 75.2322C94.6758 75.86 95.1896 76.3733 95.8157 76.3724H103.157C103.784 76.3724 104.297 75.86 104.297 75.2322C104.297 74.6061 103.784 74.0925 103.157 74.0925H95.8157C95.1876 74.0925 94.6758 74.6061 94.6758 75.2322Z" fill="white"/>
<path d="M65.1616 58.1919C65.7051 57.879 65.8929 57.178 65.5797 56.6342L61.9088 50.2762C61.5947 49.7342 60.8948 49.5467 60.3511 49.8602C59.8082 50.1734 59.621 50.8739 59.9345 51.4173L63.6051 57.7745C63.9185 58.3179 64.6193 58.5048 65.1616 58.1919Z" fill="white"/>
<path d="M57.9597 65.3947C58.2743 64.8507 58.0862 64.1499 57.5431 63.837L51.1851 60.1655C50.6425 59.8526 49.9414 60.0407 49.6271 60.583C49.3142 61.1265 49.5028 61.8261 50.0451 62.1401L56.4031 65.8107C56.9466 66.1239 57.6462 65.9364 57.9597 65.3947Z" fill="white"/>
<path d="M55.3242 75.2322C55.3242 74.6043 54.8112 74.0925 54.1852 74.0911H46.8434C46.2161 74.0925 45.7031 74.6043 45.7031 75.2322C45.7031 75.8588 46.2161 76.3724 46.8434 76.3724H54.1854C54.8112 76.3724 55.3242 75.8588 55.3242 75.2322Z" fill="white"/>
<path d="M82.7063 99.293C82.7063 98.6655 82.1933 98.1531 81.5661 98.1531H68.4329C67.8062 98.1531 67.2932 98.6655 67.2932 99.293C67.2932 99.9203 67.8059 100.433 68.4329 100.433H81.5661C82.1933 100.433 82.7063 99.9203 82.7063 99.293Z" fill="white"/>
<path d="M71.1494 101.284C71.6847 102.9 73.2052 104.066 74.9999 104.066C76.7946 104.066 78.3145 102.9 78.8495 101.284H71.1494V101.284Z" fill="white"/>
<path d="M74.9999 59.1804C66.1353 59.1804 58.9487 66.3675 58.9487 75.2322C58.9487 79.9437 60.9805 84.1844 64.2166 87.1206C64.2233 87.1244 64.6994 87.5252 64.9309 87.7261C66.4522 89.0474 67.2945 91.0859 67.2945 93.26H82.7038C82.7038 91.0859 83.547 89.0474 85.0675 87.7261C85.2992 87.5249 85.7756 87.1241 85.7826 87.1206C89.0182 84.1844 91.0499 79.9437 91.0499 75.2322C91.0505 66.3675 83.8646 59.1804 74.9999 59.1804ZM76.1155 82.818V84.2527C76.1155 84.5325 76.0086 84.812 75.7953 85.0267C75.5814 85.2403 75.3011 85.3469 75.0213 85.3469H74.7796C74.4998 85.3469 74.2197 85.2406 74.0067 85.0267C73.7932 84.8123 73.6854 84.5325 73.6854 84.2527V82.9926C72.0248 82.9182 70.4132 82.4723 69.4719 81.9259L70.2148 79.025C71.2566 79.5959 72.7189 80.1166 74.3311 80.1166C75.7432 80.1166 76.7105 79.5713 76.7105 78.5785C76.7105 77.6366 75.9178 77.0427 74.082 76.4228C71.4298 75.5301 69.6198 74.2906 69.6198 71.885C69.6198 69.7033 71.1576 67.992 73.8099 67.4717V66.2108C73.8099 65.931 73.9165 65.6503 74.1301 65.4379C74.3442 65.2244 74.6237 65.1177 74.9041 65.1177H75.1452C75.425 65.1177 75.7045 65.2244 75.9192 65.4379C76.1328 65.6506 76.2395 65.931 76.2395 66.2108V67.2989C77.9003 67.3733 79.0165 67.7202 79.8345 68.1171L79.1155 70.9188C78.4713 70.6455 77.3311 70.0756 75.5454 70.0756C73.9332 70.0756 73.4132 70.7703 73.4132 71.464C73.4132 72.282 74.281 72.8029 76.3883 73.5957C79.3388 74.6372 80.5282 76.0003 80.5282 78.2319C80.5282 80.4385 78.9661 82.3232 76.1155 82.818Z" fill="white"/>
</g>
</g>
<path d="M202.062 56.5625V110H182.562V42.375H200.875L202.062 56.5625ZM199.562 73.8125L194.625 73.9375C194.625 69.1875 195.188 64.8333 196.312 60.875C197.479 56.875 199.167 53.3958 201.375 50.4375C203.583 47.4792 206.312 45.1875 209.562 43.5625C212.854 41.9375 216.646 41.125 220.938 41.125C223.938 41.125 226.667 41.5833 229.125 42.5C231.583 43.375 233.688 44.7708 235.438 46.6875C237.229 48.5625 238.604 51.0208 239.562 54.0625C240.521 57.0625 241 60.6667 241 64.875V110H221.5V67.25C221.5 64.25 221.125 61.9792 220.375 60.4375C219.667 58.8542 218.625 57.7708 217.25 57.1875C215.875 56.6042 214.229 56.3125 212.312 56.3125C210.229 56.3125 208.375 56.7708 206.75 57.6875C205.167 58.5625 203.833 59.7917 202.75 61.375C201.667 62.9583 200.854 64.8125 200.312 66.9375C199.812 69.0625 199.562 71.3542 199.562 73.8125ZM239 72.8125L232.812 73.3125C232.812 68.7292 233.354 64.4792 234.438 60.5625C235.521 56.6458 237.146 53.25 239.312 50.375C241.479 47.4583 244.167 45.1875 247.375 43.5625C250.625 41.9375 254.396 41.125 258.688 41.125C261.854 41.125 264.729 41.5833 267.312 42.5C269.938 43.4167 272.188 44.8958 274.062 46.9375C275.979 48.9792 277.458 51.6667 278.5 55C279.542 58.2917 280.062 62.3333 280.062 67.125V110H260.438V67.125C260.438 64.1667 260.062 61.9167 259.312 60.375C258.604 58.8333 257.562 57.7708 256.188 57.1875C254.854 56.6042 253.25 56.3125 251.375 56.3125C249.292 56.3125 247.479 56.75 245.938 57.625C244.396 58.4583 243.104 59.625 242.062 61.125C241.021 62.5833 240.25 64.3125 239.75 66.3125C239.25 68.3125 239 70.4792 239 72.8125ZM335.338 93.875V64.875C335.338 62.8333 335.025 61.0833 334.4 59.625C333.775 58.1667 332.796 57.0208 331.463 56.1875C330.129 55.3542 328.4 54.9375 326.275 54.9375C324.483 54.9375 322.921 55.25 321.588 55.875C320.296 56.5 319.296 57.3958 318.588 58.5625C317.921 59.7292 317.588 61.1667 317.588 62.875H298.088C298.088 59.8333 298.775 57 300.15 54.375C301.525 51.75 303.483 49.4375 306.025 47.4375C308.608 45.4375 311.692 43.8958 315.275 42.8125C318.858 41.6875 322.879 41.125 327.338 41.125C332.629 41.125 337.338 42.0208 341.463 43.8125C345.629 45.5625 348.921 48.2083 351.338 51.75C353.754 55.25 354.963 59.6667 354.963 65V93.3125C354.963 97.3958 355.192 100.604 355.65 102.938C356.15 105.229 356.858 107.229 357.775 108.938V110H338.088C337.171 108.042 336.483 105.625 336.025 102.75C335.567 99.8333 335.338 96.875 335.338 93.875ZM337.775 68.75L337.9 79.5H328.213C326.046 79.5 324.171 79.7708 322.588 80.3125C321.046 80.8542 319.796 81.6042 318.838 82.5625C317.879 83.4792 317.171 84.5625 316.713 85.8125C316.296 87.0208 316.088 88.3542 316.088 89.8125C316.088 91.1875 316.421 92.4375 317.088 93.5625C317.754 94.6458 318.671 95.5 319.838 96.125C321.004 96.75 322.358 97.0625 323.9 97.0625C326.442 97.0625 328.608 96.5625 330.4 95.5625C332.233 94.5625 333.65 93.3542 334.65 91.9375C335.65 90.4792 336.15 89.125 336.15 87.875L340.838 96C340.088 97.6667 339.171 99.3958 338.088 101.188C337.004 102.938 335.629 104.583 333.963 106.125C332.296 107.625 330.275 108.854 327.9 109.812C325.567 110.771 322.754 111.25 319.463 111.25C315.213 111.25 311.358 110.396 307.9 108.688C304.442 106.938 301.671 104.542 299.588 101.5C297.546 98.4583 296.525 94.9583 296.525 91C296.525 87.4583 297.171 84.3125 298.463 81.5625C299.754 78.8125 301.692 76.4792 304.275 74.5625C306.9 72.6458 310.192 71.2083 314.15 70.25C318.108 69.25 322.733 68.75 328.025 68.75H337.775ZM393.3 56.8125V110H373.738V42.375H392.113L393.3 56.8125ZM390.738 73.8125L385.863 73.9375C385.863 68.8542 386.488 64.2917 387.738 60.25C388.988 56.2083 390.758 52.7708 393.05 49.9375C395.383 47.0625 398.154 44.875 401.363 43.375C404.613 41.875 408.196 41.125 412.113 41.125C415.279 41.125 418.175 41.5833 420.8 42.5C423.425 43.4167 425.675 44.8958 427.55 46.9375C429.467 48.9375 430.925 51.6042 431.925 54.9375C432.925 58.2292 433.425 62.2917 433.425 67.125V110H413.8V67.0625C413.8 64.2292 413.404 62.0417 412.613 60.5C411.821 58.9583 410.654 57.875 409.113 57.25C407.613 56.625 405.779 56.3125 403.613 56.3125C401.321 56.3125 399.363 56.7708 397.738 57.6875C396.113 58.5625 394.779 59.7917 393.738 61.375C392.696 62.9583 391.925 64.8125 391.425 66.9375C390.967 69.0625 390.738 71.3542 390.738 73.8125ZM488.388 93.875V64.875C488.388 62.8333 488.075 61.0833 487.45 59.625C486.825 58.1667 485.846 57.0208 484.513 56.1875C483.179 55.3542 481.45 54.9375 479.325 54.9375C477.533 54.9375 475.971 55.25 474.638 55.875C473.346 56.5 472.346 57.3958 471.638 58.5625C470.971 59.7292 470.638 61.1667 470.638 62.875H451.138C451.138 59.8333 451.825 57 453.2 54.375C454.575 51.75 456.533 49.4375 459.075 47.4375C461.658 45.4375 464.742 43.8958 468.325 42.8125C471.908 41.6875 475.929 41.125 480.388 41.125C485.679 41.125 490.388 42.0208 494.513 43.8125C498.679 45.5625 501.971 48.2083 504.388 51.75C506.804 55.25 508.013 59.6667 508.013 65V93.3125C508.013 97.3958 508.242 100.604 508.7 102.938C509.2 105.229 509.908 107.229 510.825 108.938V110H491.138C490.221 108.042 489.533 105.625 489.075 102.75C488.617 99.8333 488.388 96.875 488.388 93.875ZM490.825 68.75L490.95 79.5H481.263C479.096 79.5 477.221 79.7708 475.638 80.3125C474.096 80.8542 472.846 81.6042 471.888 82.5625C470.929 83.4792 470.221 84.5625 469.763 85.8125C469.346 87.0208 469.138 88.3542 469.138 89.8125C469.138 91.1875 469.471 92.4375 470.138 93.5625C470.804 94.6458 471.721 95.5 472.888 96.125C474.054 96.75 475.408 97.0625 476.95 97.0625C479.492 97.0625 481.658 96.5625 483.45 95.5625C485.283 94.5625 486.7 93.3542 487.7 91.9375C488.7 90.4792 489.2 89.125 489.2 87.875L493.888 96C493.138 97.6667 492.221 99.3958 491.138 101.188C490.054 102.938 488.679 104.583 487.013 106.125C485.346 107.625 483.325 108.854 480.95 109.812C478.617 110.771 475.804 111.25 472.513 111.25C468.263 111.25 464.408 110.396 460.95 108.688C457.492 106.938 454.721 104.542 452.638 101.5C450.596 98.4583 449.575 94.9583 449.575 91C449.575 87.4583 450.221 84.3125 451.513 81.5625C452.804 78.8125 454.742 76.4792 457.325 74.5625C459.95 72.6458 463.242 71.2083 467.2 70.25C471.158 69.25 475.783 68.75 481.075 68.75H490.825ZM563.225 91.1875C563.225 89.9375 562.829 88.8333 562.038 87.875C561.288 86.9167 559.913 86.0417 557.913 85.25C555.954 84.4583 553.183 83.6667 549.6 82.875C546.225 82.1667 543.079 81.25 540.163 80.125C537.246 78.9583 534.704 77.5625 532.538 75.9375C530.371 74.2708 528.683 72.3125 527.475 70.0625C526.267 67.7708 525.663 65.1667 525.663 62.25C525.663 59.4167 526.267 56.7292 527.475 54.1875C528.725 51.6458 530.517 49.3958 532.85 47.4375C535.225 45.4792 538.1 43.9375 541.475 42.8125C544.892 41.6875 548.767 41.125 553.1 41.125C559.058 41.125 564.204 42.0625 568.538 43.9375C572.871 45.7708 576.204 48.3542 578.538 51.6875C580.871 54.9792 582.038 58.75 582.038 63H562.538C562.538 61.25 562.204 59.7292 561.538 58.4375C560.871 57.1458 559.85 56.1458 558.475 55.4375C557.1 54.6875 555.288 54.3125 553.038 54.3125C551.288 54.3125 549.746 54.625 548.413 55.25C547.121 55.8333 546.1 56.6458 545.35 57.6875C544.642 58.7292 544.288 59.9375 544.288 61.3125C544.288 62.2708 544.496 63.1458 544.913 63.9375C545.371 64.6875 546.058 65.3958 546.975 66.0625C547.933 66.6875 549.163 67.25 550.663 67.75C552.204 68.25 554.079 68.7292 556.288 69.1875C560.996 70.0625 565.288 71.2917 569.163 72.875C573.079 74.4583 576.204 76.6458 578.538 79.4375C580.913 82.2292 582.1 85.9167 582.1 90.5C582.1 93.5 581.413 96.25 580.038 98.75C578.704 101.25 576.767 103.438 574.225 105.312C571.683 107.188 568.642 108.646 565.1 109.688C561.558 110.729 557.558 111.25 553.1 111.25C546.725 111.25 541.329 110.104 536.913 107.812C532.496 105.521 529.163 102.646 526.913 99.1875C524.704 95.6875 523.6 92.1042 523.6 88.4375H541.913C541.996 90.6875 542.558 92.5208 543.6 93.9375C544.683 95.3542 546.079 96.3958 547.788 97.0625C549.496 97.6875 551.413 98 553.538 98C555.663 98 557.433 97.7083 558.85 97.125C560.267 96.5417 561.35 95.75 562.1 94.75C562.85 93.7083 563.225 92.5208 563.225 91.1875ZM639.062 93.6875V42.375H658.688V110H640.312L639.062 93.6875ZM641.125 79.875L646.5 79.75C646.5 84.2917 645.958 88.4792 644.875 92.3125C643.833 96.1458 642.25 99.4792 640.125 102.312C638.042 105.146 635.438 107.354 632.312 108.938C629.229 110.479 625.625 111.25 621.5 111.25C618.167 111.25 615.104 110.792 612.312 109.875C609.562 108.917 607.188 107.438 605.188 105.438C603.188 103.396 601.646 100.792 600.562 97.625C599.479 94.4167 598.938 90.5833 598.938 86.125V42.375H618.438V86.25C618.438 88 618.646 89.5 619.062 90.75C619.521 91.9583 620.125 92.9583 620.875 93.75C621.667 94.5417 622.625 95.125 623.75 95.5C624.917 95.875 626.188 96.0625 627.562 96.0625C631.021 96.0625 633.729 95.3542 635.688 93.9375C637.688 92.4792 639.083 90.5417 639.875 88.125C640.708 85.6667 641.125 82.9167 641.125 79.875ZM677.837 14H697.337V93.9375L695.337 110H677.837V14ZM739.525 75.4375V76.75C739.525 81.875 738.983 86.5417 737.9 90.75C736.858 94.9583 735.254 98.6042 733.087 101.688C730.921 104.729 728.192 107.083 724.9 108.75C721.608 110.417 717.733 111.25 713.275 111.25C709.15 111.25 705.608 110.396 702.65 108.688C699.692 106.938 697.212 104.521 695.212 101.438C693.212 98.3542 691.587 94.75 690.337 90.625C689.129 86.5 688.192 82.0625 687.525 77.3125V75.0625C688.192 70.3125 689.129 65.875 690.337 61.75C691.587 57.625 693.212 54.0208 695.212 50.9375C697.212 47.8542 699.671 45.4583 702.587 43.75C705.546 42 709.067 41.125 713.15 41.125C717.65 41.125 721.546 41.9792 724.837 43.6875C728.171 45.3958 730.921 47.7917 733.087 50.875C735.254 53.9167 736.858 57.5417 737.9 61.75C738.983 65.9167 739.525 70.4792 739.525 75.4375ZM720.025 76.75V75.4375C720.025 72.8542 719.837 70.4167 719.462 68.125C719.129 65.8333 718.525 63.8125 717.65 62.0625C716.817 60.2708 715.629 58.875 714.087 57.875C712.587 56.8333 710.65 56.3125 708.275 56.3125C705.942 56.3125 703.962 56.7083 702.337 57.5C700.712 58.2917 699.4 59.4167 698.4 60.875C697.4 62.2917 696.671 64.0208 696.212 66.0625C695.754 68.1042 695.504 70.375 695.462 72.875V79.5C695.504 82.8333 695.942 85.75 696.775 88.25C697.608 90.75 698.962 92.6875 700.837 94.0625C702.712 95.3958 705.233 96.0625 708.4 96.0625C710.817 96.0625 712.775 95.6042 714.275 94.6875C715.817 93.7292 716.983 92.3958 717.775 90.6875C718.608 88.9792 719.192 86.9375 719.525 84.5625C719.858 82.1875 720.025 79.5833 720.025 76.75Z" fill="#443322"/>
</g>
<defs>
<radialGradient id="paint0_radial_464_59" cx="0" cy="0" r="1" gradientUnits="userSpaceOnUse" gradientTransform="translate(75 75) rotate(90) scale(75)">
<stop stop-color="#EBFF00"/>
<stop offset="0.963542" stop-color="#38C235"/>
</radialGradient>
<clipPath id="clip0_464_59">
<rect width="744" height="150" fill="white"/>
</clipPath>
<clipPath id="clip1_464_59">
<rect width="117.188" height="117.188" fill="white" transform="translate(16.4062 16.4062)"/>
</clipPath>
<clipPath id="clip2_464_59">
<rect width="58.5938" height="58.5938" fill="white" transform="translate(45.7031 45.7031)"/>
</clipPath>
</defs>
</svg>
